<svg data-v-423bf9ae="" xmlns="http://www.w3.org/2000/svg" viewBox="0 0 390 112" class="iconLeft"><!----><!----><!----><g data-v-423bf9ae="" id="e4c095d4-41f0-4832-a53d-37ee1b564bf7" fill="#000000" transform="matrix(4.282655176286797,0,0,4.282655176286797,128.37553714247935,11.294499899825254)"><path d="M1.75 11.89L2.23 7.06Q2.30 6.32 2.63 5.82Q2.96 5.32 3.45 5.02Q3.93 4.72 4.53 4.60Q5.12 4.48 5.73 4.48L5.73 4.48Q6.23 4.48 6.71 4.52Q7.18 4.56 7.59 4.61Q7.99 4.67 8.29 4.72Q8.58 4.78 8.72 4.81L8.72 4.81Q8.80 4.83 8.80 4.88L8.80 4.88Q8.80 4.89 8.78 4.96L8.78 4.96L8.68 5.46Q8.67 5.50 8.64 5.51Q8.62 5.52 8.60 5.52L8.60 5.52Q8.30 5.52 8.08 5.63Q7.86 5.73 7.72 5.91Q7.57 6.10 7.50 6.35Q7.42 6.60 7.40 6.90L7.40 6.90L6.99 11.87Q6.93 12.47 6.68 13.00Q6.43 13.54 5.97 13.93Q5.52 14.33 4.87 14.56Q4.21 14.79 3.36 14.79L3.36 14.79Q2.80 14.79 2.27 14.74Q1.74 14.68 1.31 14.61Q0.88 14.53 0.57 14.46Q0.26 14.39 0.12 14.36L0.12 14.36Q0.04 14.33 0.04 14.28L0.04 14.28Q0.04 14.27 0.05 14.21L0.05 14.21L0.17 13.69Q0.18 13.64 0.21 13.63Q0.23 13.62 0.25 13.62L0.25 13.62Q0.55 13.62 0.81 13.53Q1.07 13.44 1.26 13.23Q1.45 13.03 1.58 12.70Q1.70 12.37 1.75 11.89L1.75 11.89ZM9.47 13.58L9.47 4.28Q9.47 4.05 9.51 3.87Q9.55 3.68 9.67 3.57Q9.78 3.45 9.99 3.39Q10.19 3.33 10.52 3.33L10.52 3.33L13.51 3.33Q13.83 3.33 14.02 3.39Q14.21 3.45 14.32 3.57Q14.43 3.68 14.47 3.87Q14.51 4.05 14.51 4.28L14.51 4.28L14.51 9.21L16.15 7.59Q16.22 7.51 16.29 7.48Q16.36 7.45 16.41 7.45L16.41 7.45Q16.54 7.45 16.63 7.55L16.63 7.55L16.97 7.91Q17.04 8.00 17.04 8.08L17.04 8.08Q17.04 8.16 16.99 8.23Q16.94 8.31 16.82 8.39L16.82 8.39L14.68 9.97Q15.25 9.99 15.64 10.12Q16.03 10.25 16.27 10.49Q16.51 10.73 16.61 11.08Q16.72 11.44 16.72 11.91L16.72 11.91L16.72 14.21Q16.72 14.32 16.69 14.39Q16.66 14.45 16.61 14.48Q16.57 14.51 16.51 14.52Q16.45 14.53 16.39 14.53L16.39 14.53L15.95 14.53Q15.77 14.53 15.72 14.42Q15.67 14.32 15.67 14.21L15.67 14.21L15.67 11.84Q15.67 11.53 15.61 11.32Q15.55 11.11 15.42 10.98Q15.28 10.86 15.06 10.80Q14.83 10.74 14.51 10.73L14.51 10.73L14.51 13.59Q14.51 13.82 14.46 14.00Q14.42 14.17 14.29 14.29Q14.17 14.41 13.95 14.47Q13.73 14.53 13.39 14.53L13.39 14.53L10.52 14.53Q10.19 14.53 9.99 14.46Q9.78 14.40 9.67 14.29Q9.55 14.17 9.51 13.99Q9.47 13.82 9.47 13.58L9.47 13.58ZM21.58 7.82L22.64 10.43L23.60 7.93Q23.63 7.84 23.66 7.77Q23.69 7.70 23.73 7.64Q23.77 7.59 23.84 7.56Q23.91 7.53 24.01 7.53L24.01 7.53L24.81 7.53Q25.01 7.53 25.01 7.64L25.01 7.64Q25.01 7.72 24.94 7.89L24.94 7.89L21.08 17.00Q21.03 17.09 21.01 17.15Q20.98 17.22 20.94 17.26Q20.90 17.30 20.85 17.32Q20.79 17.34 20.70 17.34L20.70 17.34L19.82 17.34Q19.61 17.34 19.61 17.22L19.61 17.22Q19.61 17.14 19.69 16.97L19.69 16.97L20.71 14.79L17.23 8.10Q17.19 8.03 17.18 7.96Q17.16 7.90 17.16 7.84L17.16 7.84Q17.16 7.67 17.29 7.60Q17.42 7.53 17.56 7.53L17.56 7.53L21.03 7.53Q21.27 7.53 21.41 7.63Q21.54 7.72 21.58 7.82L21.58 7.82ZM31.51 13.58L31.51 10.20L29.91 13.16Q29.80 13.35 29.66 13.48Q29.52 13.60 29.26 13.60L29.26 13.60Q29.03 13.60 28.88 13.47Q28.72 13.34 28.62 13.17L28.62 13.17L26.93 10.25Q26.97 11.18 27.00 11.96L27.00 11.96Q27.02 12.29 27.03 12.63Q27.04 12.96 27.06 13.25Q27.07 13.54 27.08 13.76Q27.09 13.98 27.10 14.08L27.10 14.08Q27.10 14.18 27.09 14.27Q27.08 14.35 27.04 14.41Q27.00 14.46 26.93 14.50Q26.85 14.53 26.72 14.53L26.72 14.53L25.97 14.53Q25.85 14.53 25.74 14.45Q25.63 14.37 25.63 14.14L25.63 14.14L25.63 5.44Q25.63 5.31 25.67 5.18Q25.71 5.05 25.80 4.95Q25.89 4.84 26.04 4.77Q26.20 4.71 26.41 4.71L26.41 4.71L28.62 4.71Q28.88 4.71 29.07 4.80Q29.26 4.89 29.40 5.11L29.40 5.11L31.24 8.03L32.47 5.67Q32.58 5.46 32.68 5.28Q32.79 5.11 32.93 4.98Q33.07 4.85 33.27 4.78Q33.48 4.71 33.81 4.71L33.81 4.71L35.63 4.71Q35.89 4.71 36.08 4.78Q36.26 4.85 36.38 4.96Q36.50 5.08 36.56 5.24Q36.61 5.39 36.61 5.58L36.61 5.58L36.61 13.58Q36.61 13.79 36.58 13.96Q36.54 14.14 36.44 14.26Q36.33 14.39 36.14 14.46Q35.94 14.53 35.63 14.53L35.63 14.53L32.47 14.53Q32.19 14.53 32.01 14.46Q31.82 14.40 31.71 14.29Q31.60 14.17 31.56 13.99Q31.51 13.82 31.51 13.58L31.51 13.58ZM44.38 14.53L40.73 14.53Q40.36 14.53 39.99 14.48Q39.61 14.43 39.28 14.32Q38.94 14.22 38.64 14.05Q38.35 13.88 38.13 13.62Q37.92 13.37 37.80 13.03Q37.67 12.69 37.67 12.24L37.67 12.24Q37.67 11.65 37.90 11.22Q38.12 10.80 38.50 10.52Q38.88 10.24 39.38 10.09Q39.87 9.94 40.39 9.90L40.39 9.90L40.39 9.43Q40.39 9.16 40.33 9.00Q40.26 8.85 40.15 8.77Q40.04 8.69 39.92 8.66Q39.79 8.64 39.68 8.64L39.68 8.64Q39.54 8.64 39.39 8.68Q39.23 8.72 39.09 8.78Q38.94 8.84 38.81 8.91Q38.68 8.98 38.60 9.03L38.60 9.03Q38.55 9.06 38.52 9.08Q38.49 9.10 38.45 9.10L38.45 9.10Q38.39 9.10 38.34 9.01L38.34 9.01L38.10 8.64Q38.07 8.59 38.07 8.54L38.07 8.54Q38.07 8.48 38.11 8.44Q38.16 8.40 38.20 8.37L38.20 8.37Q38.42 8.22 38.77 8.05Q39.12 7.89 39.56 7.76Q39.99 7.63 40.50 7.55Q41.00 7.46 41.54 7.46L41.54 7.46Q42.05 7.46 42.54 7.50Q43.03 7.53 43.47 7.65Q43.90 7.76 44.26 7.97Q44.62 8.18 44.88 8.52Q45.14 8.86 45.29 9.36Q45.43 9.86 45.43 10.55L45.43 10.55L45.43 13.60Q45.43 13.83 45.39 14.00Q45.35 14.18 45.23 14.29Q45.12 14.41 44.91 14.47Q44.71 14.53 44.38 14.53L44.38 14.53ZM40.39 13.65L40.39 10.77Q39.90 10.77 39.57 10.89Q39.23 11.01 39.03 11.22Q38.82 11.42 38.73 11.69Q38.64 11.96 38.64 12.25L38.64 12.25Q38.64 12.54 38.73 12.79Q38.82 13.05 39.03 13.24Q39.23 13.43 39.57 13.54Q39.90 13.65 40.39 13.65L40.39 13.65ZM46.69 13.58L46.69 8.48Q46.69 8.24 46.73 8.06Q46.77 7.88 46.89 7.77Q47.00 7.65 47.21 7.59Q47.41 7.53 47.74 7.53L47.74 7.53L50.74 7.53Q51.05 7.53 51.24 7.59Q51.43 7.65 51.54 7.77Q51.65 7.90 51.69 8.08Q51.73 8.26 51.73 8.51L51.73 8.51L51.73 9.02L53.25 7.54Q53.40 7.40 53.53 7.40L53.53 7.40Q53.60 7.40 53.66 7.43Q53.72 7.46 53.76 7.50L53.76 7.50L54.07 7.82Q54.17 7.92 54.17 8.05L54.17 8.05Q54.17 8.12 54.12 8.20Q54.08 8.28 53.98 8.35L53.98 8.35L51.73 10.10L51.73 13.56Q51.73 13.80 51.69 13.98Q51.66 14.16 51.54 14.28Q51.43 14.40 51.21 14.46Q50.99 14.53 50.61 14.53L50.61 14.53L47.74 14.53Q47.41 14.53 47.21 14.46Q47.00 14.40 46.89 14.29Q46.77 14.17 46.73 13.99Q46.69 13.82 46.69 13.58L46.69 13.58ZM54.58 9.77L53.87 9.77Q53.72 9.77 53.72 9.62L53.72 9.62L53.72 9.07Q53.72 8.93 53.87 8.93L53.87 8.93L54.58 8.93L54.58 7.38Q54.58 7.27 54.61 7.17Q54.64 7.07 54.78 7.01L54.78 7.01L58.55 5.62Q58.81 5.52 58.98 5.48Q59.15 5.43 59.28 5.43L59.28 5.43Q59.33 5.43 59.39 5.44Q59.45 5.46 59.50 5.50Q59.55 5.54 59.58 5.62Q59.62 5.69 59.62 5.79L59.62 5.79L59.62 8.93L60.85 8.93Q60.99 8.93 60.99 9.07L60.99 9.07L60.99 9.62Q60.99 9.77 60.85 9.77L60.85 9.77L59.62 9.77L59.62 12.52Q59.62 13.01 59.78 13.21Q59.94 13.41 60.27 13.41L60.27 13.41Q60.35 13.41 60.43 13.39Q60.51 13.37 60.58 13.35Q60.66 13.34 60.72 13.32Q60.78 13.30 60.82 13.30L60.82 13.30Q60.89 13.30 60.89 13.39L60.89 13.39L60.89 13.92Q60.89 14.05 60.84 14.10Q60.79 14.15 60.74 14.16L60.74 14.16Q60.48 14.27 60.13 14.38Q59.78 14.49 59.37 14.58Q58.97 14.66 58.52 14.71Q58.06 14.77 57.61 14.77L57.61 14.77Q56.96 14.77 56.41 14.70Q55.85 14.64 55.44 14.40Q55.04 14.17 54.81 13.71Q54.58 13.25 54.58 12.47L54.58 12.47L54.58 9.77Z"></path></g><defs data-v-423bf9ae=""><linearGradient data-v-423bf9ae="" gradientTransform="rotate(25)" id="abd23f26-2cd4-4a60-af87-c28248a75e1d" x1="0%" y1="0%" x2="100%" y2="0%"><stop data-v-423bf9ae="" offset="0%" style="stop-color: rgb(0, 118, 221); stop-opacity: 1;"></stop><stop data-v-423bf9ae="" offset="100%" style="stop-color: rgb(0, 205, 233); stop-opacity: 1;"></stop></linearGradient></defs><g data-v-423bf9ae="" id="a3577922-8b61-4985-a00c-e44340124749" transform="matrix(1.1111129760742187,0,0,1.1111129760742187,-0.40164955457184703,0.4442755813138817)" stroke="none" fill="url(#abd23f26-2cd4-4a60-af87-c28248a75e1d)"><path d="M55.527 18.283a9.187 9.187 0 0010.448-7.738C66.722 5.522 63.26.848 58.223.101c-5.02-.747-9.697 2.724-10.439 7.739-.747 5.026 2.724 9.697 7.743 10.443zM64.818 54.233c.055-.354.118-.702.118-1.068l.191-19.526 6.883 4.714 4.499 12.88c-.1.126-.245.201-.337.335a5.37 5.37 0 00-.814 4.052l.141.717-5.11 1.007 5.384 31.907 23.073-4.536-7.838-31.425-4.915.964-.141-.716c-.383-1.96-1.845-3.484-3.662-4.076l-3.175-14.563a3.858 3.858 0 00-1.548-2.163L61.849 21.973c-.031-.023-.059-.041-.091-.062l-.296-.203-.019.025c-1.166-.71-2.51-1.15-3.972-1.166-2.223-.057-4.268.922-5.721 2.478l-.014-.012-.159.221c-.314.36-.597.747-.838 1.161l-9.392 12.981L25.1 42.34l.264 1.059c-2.387.556-4.204 2.603-4.204 5.158v.729h-5.215l-1.248 34.271h23.52l-1.252-34.271h-5.01v-.729c0-.48-.155-.913-.273-1.357l12.932-2.6a3.907 3.907 0 002.209-1.496l2.692-3.726-.128 13.637c-.004.234.041.455.06.684l-7.356 19.336a4.8 4.8 0 00-.319 1.597l.474 25.183 7.387.185 1.831-24.278 4.787-12.575 1.745 12.479c.068.46.195.904.382 1.328l11.573 22.324 6.377-2.876-8.8-22.813-2.71-19.356zm19.084.454l-6.208 1.221-.141-.718a3.11 3.11 0 01.428-2.252l4.085-1.144c.843.431 1.499 1.195 1.694 2.178l.142.715zm-54.181-6.129v.729h-6.327v-.729c0-1.515 1.089-2.722 2.505-3.034l.684 2.706 2.951-.597c.091.299.187.597.187.925z"></path><path d="M19.833 46.048l-5.038-3.188L1.154 63.046l11.892 7.42.856-23.304H19.5z"></path></g><!----></svg>